<svg width="151px" height="151px" viewBox="0 0 151 151" fill="none" xmlns="http://www.w3.org/2000/svg">
<g style="mix-blend-mode:multiply">
<path d="M147.22 75.7776C147.22 36.4108 115.307 4.49762 75.9402 4.49762C36.5733 4.49762 4.66016 36.4108 4.66016 75.7776C4.66016 115.144 36.5733 147.058 75.9402 147.058C115.307 147.058 147.22 115.144 147.22 75.7776Z" fill="white" stroke="black" stroke-width="2.4"/>
<path d="M24.4601 125.068L29.2001 120.418ZM100.12 136.918C107.05 129.988 105.97 120.778 106.18 112.138ZM44.9801 127.858C55.5101 142.588 76.9001 146.158 76.7801 145.618ZM46.5401 109.138C57.7301 110.668 70.0301 106.618 83.1401 98.2176ZM14.4701 101.428C9.7601 96.7176 6.4601 87.4476 4.6001 75.2376ZM127.96 91.0776C131.92 92.5776 137.41 92.1876 143.26 91.3176ZM26.7701 89.4576C27.7301 80.9976 28.9901 65.6976 35.8601 53.5776ZM115.18 65.6976C120.37 56.3976 122.59 46.2276 120.58 33.8976ZM60.3401 44.0976C70.3601 51.3576 79.6901 60.1176 88.4201 70.2576ZM24.8501 36.9876C18.6401 40.3176 13.6001 45.8676 8.8301 51.9576ZM47.2601 17.5776C47.3501 14.5776 48.5801 11.6676 51.4901 8.87756ZM66.3401 22.0176C75.2501 17.2776 87.8801 16.5876 100.54 15.8976Z" fill="white"/>
<path d="M24.4601 125.068L29.2001 120.418M100.12 136.918C107.05 129.988 105.97 120.778 106.18 112.138M44.9801 127.858C55.5101 142.588 76.9001 146.158 76.7801 145.618M46.5401 109.138C57.7301 110.668 70.0301 106.618 83.1401 98.2176M14.4701 101.428C9.7601 96.7176 6.4601 87.4476 4.6001 75.2376M127.96 91.0776C131.92 92.5776 137.41 92.1876 143.26 91.3176M26.7701 89.4576C27.7301 80.9976 28.9901 65.6976 35.8601 53.5776M115.18 65.6976C120.37 56.3976 122.59 46.2276 120.58 33.8976M60.3401 44.0976C70.3601 51.3576 79.6901 60.1176 88.4201 70.2576M24.8501 36.9876C18.6401 40.3176 13.6001 45.8676 8.8301 51.9576M47.2601 17.5776C47.3501 14.5776 48.5801 11.6676 51.4901 8.87756M66.3401 22.0176C75.2501 17.2776 87.8801 16.5876 100.54 15.8976" stroke="black" stroke-width="2.4"/>
<path d="M24.9397 124.497C20.3497 117.207 15.8497 109.557 12.2197 98.817C15.7297 94.587 21.4297 91.227 26.9797 87.657C35.2297 96.297 43.2997 104.517 49.6597 109.377C48.9097 117.597 49.5997 121.677 47.8597 131.577C40.5397 131.487 32.8897 129.057 24.9397 124.497ZM23.7397 37.377C31.1797 29.247 38.6797 21.267 47.3797 15.657C55.2397 17.307 63.9697 18.807 68.4997 21.057C67.4497 28.077 64.7497 37.137 62.4997 45.657C51.7897 49.797 43.7497 52.587 34.7797 55.857C30.0997 49.557 25.8997 43.347 23.7397 37.377ZM114.73 135.567C102.321 143.583 87.7285 147.546 72.9697 146.907L72.7597 145.137C83.0197 143.517 92.9797 141.417 100.6 135.807C105.97 136.887 110.29 135.867 114.34 134.277L114.73 135.567ZM80.9797 99.657C82.7797 88.707 84.5797 78.147 86.3797 67.857C96.3697 64.677 106.39 64.257 116.38 63.177C122.92 71.067 124.99 81.927 128.98 91.497C121.78 102.657 113.74 107.187 105.94 113.577C97.5097 109.917 89.1097 105.867 80.9797 99.657ZM101.32 9.26696C115.441 14.6367 127.49 24.3542 135.73 37.017L135.58 40.497C131.77 37.977 126.67 37.077 120.94 36.957C117.61 29.997 107.05 23.037 97.7797 16.077C98.6797 13.497 99.9397 11.307 101.32 9.26696ZM147.13 77.877C146.815 88.2363 144.246 98.4025 139.6 107.667C141.82 101.697 143.89 96.657 142.09 91.407C144.34 89.817 146.11 86.127 147.13 77.877Z" fill="black"/>
</g>
</svg>
