<svg width="151" height="151" viewBox="0 0 151 151" fill="none" xmlns="http://www.w3.org/2000/svg">
<g style="mix-blend-mode:multiply">
<path d="M75.9402 147.057C115.307 147.057 147.22 115.144 147.22 75.7771C147.22 36.4102 115.307 4.49707 75.9402 4.49707C36.5733 4.49707 4.66016 36.4102 4.66016 75.7771C4.66016 115.144 36.5733 147.057 75.9402 147.057Z" fill="white" stroke="black" stroke-width="2.4"/>
<path d="M26.6502 24.2975L31.3002 29.0375ZM14.8002 99.9575C21.7302 106.888 30.9402 105.808 39.5802 106.018ZM23.8602 44.8175C9.13019 55.3475 5.56019 76.7375 6.10019 76.6175ZM42.5802 46.3775C41.0502 57.5675 45.1002 69.8675 53.5002 82.9775ZM50.2902 14.3075C55.0002 9.5975 64.2702 6.2975 76.4802 4.4375ZM60.6402 127.798C59.1402 131.758 59.5302 137.248 60.4002 143.098ZM62.2602 26.6075C70.7202 27.5675 86.0202 28.8275 98.1402 35.6975ZM86.0202 115.018C95.3202 120.208 105.49 122.428 117.82 120.418ZM107.62 60.1775C100.36 70.1975 91.6002 79.5275 81.4602 88.2575ZM114.73 24.6875C111.4 18.4775 105.85 13.4375 99.7602 8.6675ZM134.14 47.0975C137.14 47.1875 140.05 48.4175 142.84 51.3275ZM129.7 66.1775C134.44 75.0875 135.13 87.7175 135.82 100.378Z" fill="white"/>
<path d="M26.6502 24.2975L31.3002 29.0375M14.8002 99.9575C21.7302 106.888 30.9402 105.808 39.5802 106.018M23.8602 44.8175C9.13019 55.3475 5.56019 76.7375 6.10019 76.6175M42.5802 46.3775C41.0502 57.5675 45.1002 69.8675 53.5002 82.9775M50.2902 14.3075C55.0002 9.5975 64.2702 6.2975 76.4802 4.4375M60.6402 127.798C59.1402 131.758 59.5302 137.248 60.4002 143.098M62.2602 26.6075C70.7202 27.5675 86.0202 28.8275 98.1402 35.6975M86.0202 115.018C95.3202 120.208 105.49 122.428 117.82 120.418M107.62 60.1775C100.36 70.1975 91.6002 79.5275 81.4602 88.2575M114.73 24.6875C111.4 18.4775 105.85 13.4375 99.7602 8.6675M134.14 47.0975C137.14 47.1875 140.05 48.4175 142.84 51.3275M129.7 66.1775C134.44 75.0875 135.13 87.7175 135.82 100.378" stroke="black" stroke-width="2.4"/>
<path d="M27.2198 24.7776C34.5098 20.1876 42.1598 15.6876 52.8998 12.0576C57.1298 15.5676 60.4898 21.2676 64.0598 26.8176C55.4198 35.0676 47.1998 43.1376 42.3398 49.4976C34.1198 48.7476 30.0398 49.4376 20.1398 47.6976C20.2298 40.3776 22.6598 32.7276 27.2198 24.7776ZM114.34 23.5776C122.47 31.0176 130.45 38.5176 136.06 47.2176C134.41 55.0776 132.91 63.8076 130.66 68.3376C123.64 67.2876 114.58 64.5876 106.06 62.3376C101.92 51.6276 99.1298 43.5876 95.8598 34.6176C102.16 29.9376 108.37 25.7376 114.34 23.5776ZM16.1498 114.568C8.13383 102.159 4.17118 87.5664 4.80983 72.8076L6.57983 72.5976C8.19983 82.8576 10.2998 92.8176 15.9098 100.438C14.8298 105.808 15.8498 110.128 17.4398 114.178L16.1498 114.568ZM52.0598 80.8176C63.0098 82.6176 73.5698 84.4176 83.8598 86.2176C87.0398 96.2076 87.4598 106.228 88.5398 116.218C80.6498 122.758 69.7898 124.828 60.2198 128.818C49.0598 121.618 44.5298 113.578 38.1398 105.778C41.7998 97.3476 45.8498 88.9476 52.0598 80.8176ZM142.45 101.158C137.08 115.279 127.363 127.328 114.7 135.568L111.22 135.418C113.74 131.608 114.64 126.508 114.76 120.778C121.72 117.448 128.68 106.888 135.64 97.6176C138.22 98.5176 140.41 99.7776 142.45 101.158ZM73.8398 146.968C63.4805 146.653 53.3143 144.083 44.0498 139.438C50.0198 141.658 55.0598 143.728 60.3098 141.928C61.8998 144.178 65.5898 145.948 73.8398 146.968Z" fill="black"/>
</g>
</svg>
